{"glyphs":{"0":{"ha":1216,"x_min":0,"x_max":893,"o":"m 297 397 l 297 595 l 397 595 l 397 397 l 297 397 m 397 595 l 397 793 l 496 793 l 496 595 l 397 595 m 496 793 l 496 992 l 595 992 l 595 793 l 496 793 m 595 198 l 595 297 l 694 297 l 694 992 l 595 992 l 595 1190 l 297 1190 l 297 1091 l 198 1091 l 198 397 l 297 397 l 297 198 l 595 198 m 198 0 l 198 99 l 99 99 l 99 198 l 0 198 l 0 1190 l 99 1190 l 99 1290 l 198 1290 l 198 1389 l 694 1389 l 694 1290 l 793 1290 l 793 1190 l 893 1190 l 893 198 l 793 198 l 793 99 l 694 99 l 694 0 l 198 0 z "},"1":{"ha":1216,"x_min":198,"x_max":793,"o":"m 198 0 l 198 198 l 397 198 l 397 992 l 198 992 l 198 1190 l 297 1190 l 297 1290 l 397 1290 l 397 1389 l 595 1389 l 595 198 l 793 198 l 793 0 l 198 0 z "},"2":{"ha":1216,"x_min":0,"x_max":992,"o":"m 0 0 l 0 198 l 99 198 l 99 297 l 198 297 l 198 397 l 297 397 l 297 496 l 397 496 l 397 595 l 496 595 l 496 694 l 595 694 l 595 793 l 694 793 l 694 893 l 793 893 l 793 1091 l 694 1091 l 694 1190 l 297 1190 l 297 1091 l 198 1091 l 198 992 l 0 992 l 0 1190 l 99 1190 l 99 1290 l 198 1290 l 198 1389 l 793 1389 l 793 1290 l 893 1290 l 893 1190 l 992 1190 l 992 793 l 893 793 l 893 694 l 793 694 l 793 595 l 694 595 l 694 496 l 595 496 l 595 397 l 496 397 l 496 297 l 397 297 l 397 198 l 992 198 l 992 0 l 0 0 z "},"3":{"ha":1216,"x_min":0,"x_max":992,"o":"m 198 0 l 198 99 l 99 99 l 99 198 l 0 198 l 0 397 l 198 397 l 198 297 l 297 297 l 297 198 l 694 198 l 694 297 l 793 297 l 793 496 l 694 496 l 694 595 l 397 595 l 397 793 l 694 793 l 694 893 l 793 893 l 793 1091 l 694 1091 l 694 1190 l 297 1190 l 297 1091 l 198 1091 l 198 992 l 0 992 l 0 1190 l 99 1190 l 99 1290 l 198 1290 l 198 1389 l 793 1389 l 793 1290 l 893 1290 l 893 1190 l 992 1190 l 992 793 l 893 793 l 893 595 l 992 595 l 992 198 l 893 198 l 893 99 l 793 99 l 793 0 l 198 0 z "},"4":{"ha":1216,"x_min":0,"x_max":992,"o":"m 694 0 l 694 198 l 0 198 l 0 694 l 99 694 l 99 793 l 198 793 l 198 893 l 297 893 l 297 992 l 397 992 l 397 1091 l 496 1091 l 496 1190 l 595 1190 l 595 1290 l 694 1290 l 694 1389 l 893 1389 l 893 1190 l 793 1190 l 793 1091 l 694 1091 l 694 992 l 595 992 l 595 893 l 496 893 l 496 793 l 397 793 l 397 694 l 297 694 l 297 595 l 198 595 l 198 397 l 694 397 l 694 694 l 893 694 l 893 397 l 992 397 l 992 198 l 893 198 l 893 0 l 694 0 z "},"5":{"ha":1216,"x_min":0,"x_max":992,"o":"m 198 0 l 198 99 l 99 99 l 99 198 l 0 198 l 0 496 l 198 496 l 198 297 l 297 297 l 297 198 l 694 198 l 694 297 l 793 297 l 793 595 l 694 595 l 694 694 l 0 694 l 0 1389 l 893 1389 l 893 1190 l 198 1190 l 198 893 l 793 893 l 793 793 l 893 793 l 893 694 l 992 694 l 992 198 l 893 198 l 893 99 l 793 99 l 793 0 l 198 0 z "},"6":{"ha":1216,"x_min":0,"x_max":992,"o":"m 694 198 l 694 297 l 793 297 l 793 496 l 694 496 l 694 595 l 297 595 l 297 496 l 198 496 l 198 297 l 297 297 l 297 198 l 694 198 m 198 0 l 198 99 l 99 99 l 99 198 l 0 198 l 0 694 l 99 694 l 99 893 l 198 893 l 198 992 l 297 992 l 297 1091 l 397 1091 l 397 1190 l 496 1190 l 496 1290 l 595 1290 l 595 1389 l 793 1389 l 793 1190 l 694 1190 l 694 1091 l 595 1091 l 595 992 l 496 992 l 496 893 l 397 893 l 397 793 l 793 793 l 793 694 l 893 694 l 893 595 l 992 595 l 992 198 l 893 198 l 893 99 l 793 99 l 793 0 l 198 0 z "},"7":{"ha":1216,"x_min":0,"x_max":992,"o":"m 0 0 l 0 198 l 99 198 l 99 297 l 198 297 l 198 397 l 297 397 l 297 496 l 397 496 l 397 595 l 496 595 l 496 694 l 595 694 l 595 793 l 694 793 l 694 893 l 793 893 l 793 1190 l 0 1190 l 0 1389 l 992 1389 l 992 793 l 893 793 l 893 694 l 793 694 l 793 595 l 694 595 l 694 496 l 595 496 l 595 397 l 496 397 l 496 297 l 397 297 l 397 198 l 297 198 l 297 99 l 198 99 l 198 0 l 0 0 z "},"8":{"ha":1216,"x_min":0,"x_max":992,"o":"m 694 198 l 694 297 l 793 297 l 793 496 l 694 496 l 694 595 l 297 595 l 297 496 l 198 496 l 198 297 l 297 297 l 297 198 l 694 198 m 694 793 l 694 893 l 793 893 l 793 1091 l 694 1091 l 694 1190 l 297 1190 l 297 1091 l 198 1091 l 198 893 l 297 893 l 297 793 l 694 793 m 198 0 l 198 99 l 99 99 l 99 198 l 0 198 l 0 595 l 99 595 l 99 793 l 0 793 l 0 1190 l 99 1190 l 99 1290 l 198 1290 l 198 1389 l 793 1389 l 793 1290 l 893 1290 l 893 1190 l 992 1190 l 992 793 l 893 793 l 893 595 l 992 595 l 992 198 l 893 198 l 893 99 l 793 99 l 793 0 l 198 0 z "},"9":{"ha":1216,"x_min":0,"x_max":992,"o":"m 694 793 l 694 893 l 793 893 l 793 1091 l 694 1091 l 694 1190 l 297 1190 l 297 1091 l 198 1091 l 198 893 l 297 893 l 297 793 l 694 793 m 198 0 l 198 198 l 297 198 l 297 297 l 397 297 l 397 397 l 496 397 l 496 496 l 595 496 l 595 595 l 198 595 l 198 694 l 99 694 l 99 793 l 0 793 l 0 1190 l 99 1190 l 99 1290 l 198 1290 l 198 1389 l 793 1389 l 793 1290 l 893 1290 l 893 1190 l 992 1190 l 992 694 l 893 694 l 893 496 l 793 496 l 793 397 l 694 397 l 694 297 l 595 297 l 595 198 l 496 198 l 496 99 l 397 99 l 397 0 l 198 0 z "}," ":{"ha":1216,"x_min":0,"x_max":0,"o":""},"!":{"ha":1216,"x_min":397,"x_max":595,"o":"m 397 0 l 397 198 l 595 198 l 595 0 l 397 0 m 397 397 l 397 1389 l 595 1389 l 595 397 l 397 397 z "},"\"":{"ha":1216,"x_min":297,"x_max":793,"o":"m 297 992 l 297 1091 l 397 1091 l 397 992 l 297 992 m 595 992 l 595 1091 l 694 1091 l 694 992 l 595 992 m 397 1091 l 397 1190 l 297 1190 l 297 1389 l 496 1389 l 496 1091 l 397 1091 m 694 1091 l 694 1190 l 595 1190 l 595 1389 l 793 1389 l 793 1091 l 694 1091 z "},"#":{"ha":1216,"x_min":0,"x_max":992,"o":"m 595 496 l 595 893 l 397 893 l 397 496 l 595 496 m 99 99 l 99 297 l 0 297 l 0 496 l 198 496 l 198 893 l 0 893 l 0 1091 l 297 1091 l 297 1290 l 496 1290 l 496 1091 l 694 1091 l 694 1290 l 893 1290 l 893 1091 l 992 1091 l 992 893 l 793 893 l 793 496 l 992 496 l 992 297 l 694 297 l 694 99 l 496 99 l 496 297 l 297 297 l 297 99 l 99 99 z "},"$":{"ha":1216,"x_min":0,"x_max":992,"o":"m 694 297 l 694 397 l 793 397 l 793 496 l 694 496 l 694 595 l 595 595 l 595 297 l 694 297 m 397 793 l 397 1091 l 297 1091 l 297 992 l 198 992 l 198 893 l 297 893 l 297 793 l 397 793 m 397 0 l 397 99 l 198 99 l 198 198 l 99 198 l 99 297 l 0 297 l 0 496 l 198 496 l 198 397 l 297 397 l 297 297 l 397 297 l 397 595 l 198 595 l 198 694 l 99 694 l 99 793 l 0 793 l 0 1091 l 99 1091 l 99 1190 l 198 1190 l 198 1290 l 397 1290 l 397 1389 l 595 1389 l 595 1290 l 793 1290 l 793 1190 l 893 1190 l 893 1091 l 992 1091 l 992 893 l 793 893 l 793 992 l 694 992 l 694 1091 l 595 1091 l 595 793 l 793 793 l 793 694 l 893 694 l 893 595 l 992 595 l 992 297 l 893 297 l 893 198 l 793 198 l 793 99 l 595 99 l 595 0 l 397 0 z "},"%":{"ha":1216,"x_min":0,"x_max":992,"o":"m 694 99 l 694 297 l 893 297 l 893 99 l 694 99 m 595 297 l 595 496 l 694 496 l 694 297 l 595 297 m 893 297 l 893 496 l 992 496 l 992 297 l 893 297 m 694 496 l 694 694 l 893 694 l 893 496 l 694 496 m 99 694 l 99 893 l 297 893 l 297 694 l 99 694 m 0 893 l 0 1091 l 99 1091 l 99 893 l 0 893 m 297 893 l 297 1091 l 397 1091 l 397 893 l 297 893 m 99 1091 l 99 1290 l 297 1290 l 297 1091 l 99 1091 m 99 0 l 99 198 l 198 198 l 198 397 l 297 397 l 297 595 l 397 595 l 397 793 l 496 793 l 496 992 l 595 992 l 595 1190 l 694 1190 l 694 1389 l 893 1389 l 893 1190 l 793 1190 l 793 992 l 694 992 l 694 793 l 595 793 l 595 595 l 496 595 l 496 397 l 397 397 l 397 198 l 297 198 l 297 0 l 99 0 z "},"&":{"ha":1216,"x_min":0,"x_max":992,"o":"m 595 198 l 595 297 l 496 297 l 496 397 l 397 397 l 397 496 l 198 496 l 198 297 l 297 297 l 297 198 l 595 198 m 496 793 l 496 893 l 595 893 l 595 1091 l 496 1091 l 496 1190 l 297 1190 l 297 1091 l 198 1091 l 198 893 l 297 893 l 297 793 l 496 793 m 198 0 l 198 99 l 99 99 l 99 198 l 0 198 l 0 595 l 99 595 l 99 793 l 0 793 l 0 1190 l 99 1190 l 99 1290 l 198 1290 l 198 1389 l 595 1389 l 595 1290 l 694 1290 l 694 1190 l 793 1190 l 793 793 l 694 793 l 694 595 l 595 595 l 595 496 l 694 496 l 694 397 l 793 397 l 793 496 l 992 496 l 992 397 l 893 397 l 893 198 l 992 198 l 992 0 l 793 0 l 793 99 l 694 99 l 694 0 l 198 0 z "},"'":{"ha":1216,"x_min":397,"x_max":595,"o":"m 397 992 l 397 1091 l 496 1091 l 496 992 l 397 992 m 496 1091 l 496 1190 l 397 1190 l 397 1389 l 595 1389 l 595 1091 l 496 1091 z "},"(":{"ha":1216,"x_min":297,"x_max":694,"o":"m 397 0 l 397 99 l 297 99 l 297 1290 l 397 1290 l 397 1389 l 694 1389 l 694 1290 l 595 1290 l 595 1190 l 496 1190 l 496 198 l 595 198 l 595 99 l 694 99 l 694 0 l 397 0 z "},")":{"ha":1216,"x_min":297,"x_max":694,"o":"m 297 0 l 297 99 l 397 99 l 397 198 l 496 198 l 496 1190 l 397 1190 l 397 1290 l 297 1290 l 297 1389 l 595 1389 l 595 1290 l 694 1290 l 694 99 l 595 99 l 595 0 l 297 0 z "},"*":{"ha":1216,"x_min":0,"x_max":992,"o":"m 397 99 l 397 397 l 297 397 l 297 297 l 198 297 l 198 198 l 0 198 l 0 397 l 99 397 l 99 496 l 198 496 l 198 595 l 297 595 l 297 793 l 198 793 l 198 893 l 99 893 l 99 992 l 0 992 l 0 1190 l 198 1190 l 198 1091 l 297 1091 l 297 992 l 397 992 l 397 1290 l 595 1290 l 595 992 l 694 992 l 694 1091 l 793 1091 l 793 1190 l 992 1190 l 992 992 l 893 992 l 893 893 l 793 893 l 793 793 l 694 793 l 694 595 l 793 595 l 793 496 l 893 496 l 893 397 l 992 397 l 992 198 l 793 198 l 793 297 l 694 297 l 694 397 l 595 397 l 595 99 l 397 99 z "},"+":{"ha":1204,"x_min":99,"x_max":893,"o":"m 397 198 l 397 595 l 99 595 l 99 793 l 397 793 l 397 1190 l 595 1190 l 595 793 l 893 793 l 893 595 l 595 595 l 595 198 l 397 198 z "},",":{"ha":1216,"x_min":397,"x_max":595,"o":"m 397 -198 l 397 -99 l 496 -99 l 496 -198 l 397 -198 m 496 -99 l 496 0 l 397 0 l 397 198 l 595 198 l 595 -99 l 496 -99 z "},"-":{"ha":1216,"x_min":99,"x_max":893,"o":"m 99 595 l 99 793 l 893 793 l 893 595 l 99 595 z "},".":{"ha":1216,"x_min":397,"x_max":595,"o":"m 397 0 l 397 198 l 595 198 l 595 0 l 397 0 z "},"/":{"ha":1216,"x_min":99,"x_max":893,"o":"m 99 0 l 99 198 l 198 198 l 198 397 l 297 397 l 297 595 l 397 595 l 397 793 l 496 793 l 496 992 l 595 992 l 595 1190 l 694 1190 l 694 1389 l 893 1389 l 893 1190 l 793 1190 l 793 992 l 694 992 l 694 793 l 595 793 l 595 595 l 496 595 l 496 397 l 397 397 l 397 198 l 297 198 l 297 0 l 99 0 z "},":":{"ha":1216,"x_min":397,"x_max":595,"o":"m 397 198 l 397 397 l 595 397 l 595 198 l 397 198 m 397 793 l 397 992 l 595 992 l 595 793 l 397 793 z "},";":{"ha":1216,"x_min":397,"x_max":595,"o":"m 397 0 l 397 99 l 496 99 l 496 0 l 397 0 m 496 99 l 496 198 l 397 198 l 397 397 l 595 397 l 595 99 l 496 99 m 397 793 l 397 992 l 595 992 l 595 793 l 397 793 z "},"<":{"ha":1216,"x_min":198,"x_max":893,"o":"m 694 99 l 694 198 l 595 198 l 595 297 l 496 297 l 496 397 l 397 397 l 397 496 l 297 496 l 297 595 l 198 595 l 198 793 l 297 793 l 297 893 l 397 893 l 397 992 l 496 992 l 496 1091 l 595 1091 l 595 1190 l 694 1190 l 694 1290 l 893 1290 l 893 1091 l 793 1091 l 793 992 l 694 992 l 694 893 l 595 893 l 595 793 l 496 793 l 496 595 l 595 595 l 595 496 l 694 496 l 694 397 l 793 397 l 793 297 l 893 297 l 893 99 l 694 99 z "},"=":{"ha":1216,"x_min":99,"x_max":893,"o":"m 99 397 l 99 595 l 893 595 l 893 397 l 99 397 m 99 793 l 99 992 l 893 992 l 893 793 l 99 793 z "},">":{"ha":1216,"x_min":198,"x_max":893,"o":"m 198 99 l 198 297 l 297 297 l 297 397 l 397 397 l 397 496 l 496 496 l 496 595 l 595 595 l 595 793 l 496 793 l 496 893 l 397 893 l 397 992 l 297 992 l 297 1091 l 198 1091 l 198 1290 l 397 1290 l 397 1190 l 496 1190 l 496 1091 l 595 1091 l 595 992 l 694 992 l 694 893 l 793 893 l 793 793 l 893 793 l 893 595 l 793 595 l 793 496 l 694 496 l 694 397 l 595 397 l 595 297 l 496 297 l 496 198 l 397 198 l 397 99 l 198 99 z "},"?":{"ha":1216,"x_min":0,"x_max":992,"o":"m 397 0 l 397 198 l 595 198 l 595 0 l 397 0 m 397 397 l 397 595 l 496 595 l 496 694 l 595 694 l 595 793 l 694 793 l 694 893 l 793 893 l 793 1091 l 694 1091 l 694 1190 l 297 1190 l 297 1091 l 198 1091 l 198 992 l 0 992 l 0 1190 l 99 1190 l 99 1290 l 198 1290 l 198 1389 l 793 1389 l 793 1290 l 893 1290 l 893 1190 l 992 1190 l 992 793 l 893 793 l 893 694 l 793 694 l 793 595 l 694 595 l 694 496 l 595 496 l 595 397 l 397 397 z "},"@":{"ha":1216,"x_min":0,"x_max":992,"o":"m 595 595 l 595 793 l 397 793 l 397 595 l 595 595 m 198 99 l 198 198 l 99 198 l 99 297 l 0 297 l 0 1091 l 99 1091 l 99 1190 l 198 1190 l 198 1290 l 793 1290 l 793 1190 l 893 1190 l 893 1091 l 992 1091 l 992 397 l 893 397 l 893 297 l 595 297 l 595 397 l 297 397 l 297 496 l 198 496 l 198 893 l 297 893 l 297 992 l 694 992 l 694 893 l 793 893 l 793 496 l 893 496 l 893 992 l 793 992 l 793 1091 l 694 1091 l 694 1190 l 297 1190 l 297 1091 l 198 1091 l 198 992 l 99 992 l 99 397 l 198 397 l 198 297 l 297 297 l 297 198 l 893 198 l 893 99 l 198 99 z "},"A":{"ha":1216,"x_min":0,"x_max":992,"o":"m 793 694 l 793 992 l 694 992 l 694 1091 l 595 1091 l 595 1190 l 397 1190 l 397 1091 l 297 1091 l 297 992 l 198 992 l 198 694 l 793 694 m 0 0 l 0 1091 l 99 1091 l 99 1190 l 198 1190 l 198 1290 l 297 1290 l 297 1389 l 694 1389 l 694 1290 l 793 1290 l 793 1190 l 893 1190 l 893 1091 l 992 1091 l 992 0 l 793 0 l 793 496 l 198 496 l 198 0 l 0 0 z "},"B":{"ha":1216,"x_min":0,"x_max":992,"o":"m 694 198 l 694 297 l 793 297 l 793 496 l 694 496 l 694 595 l 198 595 l 198 198 l 694 198 m 694 793 l 694 893 l 793 893 l 793 1091 l 694 1091 l 694 1190 l 198 1190 l 198 793 l 694 793 m 0 0 l 0 1389 l 793 1389 l 793 1290 l 893 1290 l 893 1190 l 992 1190 l 992 793 l 893 793 l 893 595 l 992 595 l 992 198 l 893 198 l 893 99 l 793 99 l 793 0 l 0 0 z "},"C":{"ha":1216,"x_min":0,"x_max":992,"o":"m 198 0 l 198 99 l 99 99 l 99 198 l 0 198 l 0 1190 l 99 1190 l 99 1290 l 198 1290 l 198 1389 l 793 1389 l 793 1290 l 893 1290 l 893 1190 l 992 1190 l 992 992 l 793 992 l 793 1091 l 694 1091 l 694 1190 l 297 1190 l 297 1091 l 198 1091 l 198 297 l 297 297 l 297 198 l 694 198 l 694 297 l 793 297 l 793 397 l 992 397 l 992 198 l 893 198 l 893 99 l 793 99 l 793 0 l 198 0 z "},"D":{"ha":1216,"x_min":0,"x_max":992,"o":"m 595 198 l 595 297 l 694 297 l 694 397 l 793 397 l 793 992 l 694 992 l 694 1091 l 595 1091 l 595 1190 l 198 1190 l 198 198 l 595 198 m 0 0 l 0 1389 l 694 1389 l 694 1290 l 793 1290 l 793 1190 l 893 1190 l 893 1091 l 992 1091 l 992 297 l 893 297 l 893 198 l 793 198 l 793 99 l 694 99 l 694 0 l 0 0 z "},"E":{"ha":1216,"x_min":0,"x_max":992,"o":"m 0 0 l 0 1389 l 992 1389 l 992 1190 l 198 1190 l 198 793 l 595 793 l 595 595 l 198 595 l 198 198 l 992 198 l 992 0 l 0 0 z "},"F":{"ha":1216,"x_min":0,"x_max":992,"o":"m 0 0 l 0 1389 l 992 1389 l 992 1190 l 198 1190 l 198 793 l 595 793 l 595 595 l 198 595 l 198 0 l 0 0 z "},"G":{"ha":1216,"x_min":0,"x_max":992,"o":"m 198 0 l 198 99 l 99 99 l 99 198 l 0 198 l 0 1190 l 99 1190 l 99 1290 l 198 1290 l 198 1389 l 793 1389 l 793 1290 l 893 1290 l 893 1190 l 992 1190 l 992 992 l 793 992 l 793 1091 l 694 1091 l 694 1190 l 297 1190 l 297 1091 l 198 1091 l 198 297 l 297 297 l 297 198 l 694 198 l 694 297 l 793 297 l 793 496 l 694 496 l 694 694 l 992 694 l 992 198 l 893 198 l 893 99 l 793 99 l 793 0 l 198 0 z "},"H":{"ha":1216,"x_min":0,"x_max":992,"o":"m 0 0 l 0 1389 l 198 1389 l 198 793 l 793 793 l 793 1389 l 992 1389 l 992 0 l 793 0 l 793 595 l 198 595 l 198 0 l 0 0 z "},"I":{"ha":1216,"x_min":0,"x_max":992,"o":"m 0 0 l 0 198 l 397 198 l 397 1190 l 0 1190 l 0 1389 l 992 1389 l 992 1190 l 595 1190 l 595 198 l 992 198 l 992 0 l 0 0 z "},"J":{"ha":1216,"x_min":0,"x_max":992,"o":"m 198 0 l 198 99 l 99 99 l 99 198 l 0 198 l 0 397 l 198 397 l 198 297 l 297 297 l 297 198 l 496 198 l 496 297 l 595 297 l 595 1190 l 198 1190 l 198 1389 l 992 1389 l 992 1190 l 793 1190 l 793 198 l 694 198 l 694 99 l 595 99 l 595 0 l 198 0 z "},"K":{"ha":1216,"x_min":0,"x_max":992,"o":"m 0 0 l 0 1389 l 198 1389 l 198 793 l 297 793 l 297 893 l 397 893 l 397 992 l 496 992 l 496 1091 l 595 1091 l 595 1190 l 694 1190 l 694 1290 l 793 1290 l 793 1389 l 992 1389 l 992 1190 l 893 1190 l 893 1091 l 793 1091 l 793 992 l 694 992 l 694 893 l 595 893 l 595 793 l 496 793 l 496 595 l 595 595 l 595 496 l 694 496 l 694 397 l 793 397 l 793 297 l 893 297 l 893 198 l 992 198 l 992 0 l 793 0 l 793 99 l 694 99 l 694 198 l 595 198 l 595 297 l 496 297 l 496 397 l 397 397 l 397 496 l 297 496 l 297 595 l 198 595 l 198 0 l 0 0 z "},"L":{"ha":1216,"x_min":0,"x_max":992,"o":"m 0 0 l 0 1389 l 198 1389 l 198 198 l 992 198 l 992 0 l 0 0 z "},"M":{"ha":1216,"x_min":0,"x_max":992,"o":"m 0 0 l 0 1389 l 198 1389 l 198 1290 l 297 1290 l 297 1190 l 397 1190 l 397 1091 l 595 1091 l 595 1190 l 694 1190 l 694 1290 l 793 1290 l 793 1389 l 992 1389 l 992 0 l 793 0 l 793 992 l 694 992 l 694 893 l 595 893 l 595 793 l 397 793 l 397 893 l 297 893 l 297 992 l 198 992 l 198 0 l 0 0 z "},"N":{"ha":1216,"x_min":99,"x_max":992,"o":"m 99 0 l 99 1389 l 297 1389 l 297 1290 l 397 1290 l 397 1091 l 496 1091 l 496 893 l 595 893 l 595 694 l 694 694 l 694 496 l 793 496 l 793 1389 l 992 1389 l 992 0 l 793 0 l 793 99 l 694 99 l 694 297 l 595 297 l 595 496 l 496 496 l 496 694 l 397 694 l 397 893 l 297 893 l 297 0 l 99 0 z "},"O":{"ha":1216,"x_min":0,"x_max":992,"o":"m 694 198 l 694 297 l 793 297 l 793 1091 l 694 1091 l 694 1190 l 297 1190 l 297 1091 l 198 1091 l 198 297 l 297 297 l 297 198 l 694 198 m 198 0 l 198 99 l 99 99 l 99 198 l 0 198 l 0 1190 l 99 1190 l 99 1290 l 198 1290 l 198 1389 l 793 1389 l 793 1290 l 893 1290 l 893 1190 l 992 1190 l 992 198 l 893 198 l 893 99 l 793 99 l 793 0 l 198 0 z "},"P":{"ha":1216,"x_min":0,"x_max":992,"o":"m 694 793 l 694 893 l 793 893 l 793 1091 l 694 1091 l 694 1190 l 198 1190 l 198 793 l 694 793 m 0 0 l 0 1389 l 793 1389 l 793 1290 l 893 1290 l 893 1190 l 992 1190 l 992 793 l 893 793 l 893 694 l 793 694 l 793 595 l 198 595 l 198 0 l 0 0 z "},"Q":{"ha":1216,"x_min":0,"x_max":992,"o":"m 595 198 l 595 297 l 496 297 l 496 496 l 694 496 l 694 397 l 793 397 l 793 1091 l 694 1091 l 694 1190 l 297 1190 l 297 1091 l 198 1091 l 198 297 l 297 297 l 297 198 l 595 198 m 198 0 l 198 99 l 99 99 l 99 198 l 0 198 l 0 1190 l 99 1190 l 99 1290 l 198 1290 l 198 1389 l 793 1389 l 793 1290 l 893 1290 l 893 1190 l 992 1190 l 992 297 l 893 297 l 893 198 l 992 198 l 992 0 l 793 0 l 793 99 l 595 99 l 595 0 l 198 0 z "},"R":{"ha":1216,"x_min":0,"x_max":992,"o":"m 694 793 l 694 893 l 793 893 l 793 1091 l 694 1091 l 694 1190 l 198 1190 l 198 793 l 694 793 m 0 0 l 0 1389 l 793 1389 l 793 1290 l 893 1290 l 893 1190 l 992 1190 l 992 793 l 893 793 l 893 694 l 793 694 l 793 397 l 893 397 l 893 198 l 992 198 l 992 0 l 793 0 l 793 99 l 694 99 l 694 297 l 595 297 l 595 496 l 496 496 l 496 595 l 198 595 l 198 0 l 0 0 z "},"S":{"ha":1216,"x_min":0,"x_max":992,"o":"m 198 0 l 198 99 l 99 99 l 99 198 l 0 198 l 0 397 l 198 397 l 198 297 l 297 297 l 297 198 l 694 198 l 694 297 l 793 297 l 793 496 l 694 496 l 694 595 l 198 595 l 198 694 l 99 694 l 99 793 l 0 793 l 0 1190 l 99 1190 l 99 1290 l 198 1290 l 198 1389 l 793 1389 l 793 1290 l 893 1290 l 893 1190 l 992 1190 l 992 992 l 793 992 l 793 1091 l 694 1091 l 694 1190 l 297 1190 l 297 1091 l 198 1091 l 198 893 l 297 893 l 297 793 l 793 793 l 793 694 l 893 694 l 893 595 l 992 595 l 992 198 l 893 198 l 893 99 l 793 99 l 793 0 l 198 0 z "},"T":{"ha":1216,"x_min":0,"x_max":992,"o":"m 397 0 l 397 1190 l 0 1190 l 0 1389 l 992 1389 l 992 1190 l 595 1190 l 595 0 l 397 0 z "},"U":{"ha":1216,"x_min":0,"x_max":992,"o":"m 198 0 l 198 99 l 99 99 l 99 198 l 0 198 l 0 1389 l 198 1389 l 198 297 l 297 297 l 297 198 l 694 198 l 694 297 l 793 297 l 793 1389 l 992 1389 l 992 198 l 893 198 l 893 99 l 793 99 l 793 0 l 198 0 z "},"V":{"ha":1216,"x_min":0,"x_max":992,"o":"m 397 0 l 397 198 l 297 198 l 297 397 l 198 397 l 198 694 l 99 694 l 99 992 l 0 992 l 0 1389 l 198 1389 l 198 992 l 297 992 l 297 694 l 397 694 l 397 397 l 595 397 l 595 694 l 694 694 l 694 992 l 793 992 l 793 1389 l 992 1389 l 992 992 l 893 992 l 893 694 l 793 694 l 793 397 l 694 397 l 694 198 l 595 198 l 595 0 l 397 0 z "},"W":{"ha":1216,"x_min":0,"x_max":992,"o":"m 0 0 l 0 1389 l 198 1389 l 198 397 l 297 397 l 297 496 l 397 496 l 397 595 l 595 595 l 595 496 l 694 496 l 694 397 l 793 397 l 793 1389 l 992 1389 l 992 0 l 793 0 l 793 99 l 694 99 l 694 198 l 595 198 l 595 297 l 397 297 l 397 198 l 297 198 l 297 99 l 198 99 l 198 0 l 0 0 z "},"X":{"ha":1216,"x_min":0,"x_max":992,"o":"m 0 0 l 0 198 l 99 198 l 99 397 l 198 397 l 198 595 l 297 595 l 297 793 l 198 793 l 198 992 l 99 992 l 99 1190 l 0 1190 l 0 1389 l 198 1389 l 198 1190 l 297 1190 l 297 992 l 397 992 l 397 893 l 595 893 l 595 992 l 694 992 l 694 1190 l 793 1190 l 793 1389 l 992 1389 l 992 1190 l 893 1190 l 893 992 l 793 992 l 793 793 l 694 793 l 694 595 l 793 595 l 793 397 l 893 397 l 893 198 l 992 198 l 992 0 l 793 0 l 793 198 l 694 198 l 694 397 l 595 397 l 595 496 l 397 496 l 397 397 l 297 397 l 297 198 l 198 198 l 198 0 l 0 0 z "},"Y":{"ha":1216,"x_min":0,"x_max":992,"o":"m 397 0 l 397 595 l 297 595 l 297 793 l 198 793 l 198 992 l 99 992 l 99 1190 l 0 1190 l 0 1389 l 198 1389 l 198 1190 l 297 1190 l 297 992 l 397 992 l 397 793 l 595 793 l 595 992 l 694 992 l 694 1190 l 793 1190 l 793 1389 l 992 1389 l 992 1190 l 893 1190 l 893 992 l 793 992 l 793 793 l 694 793 l 694 595 l 595 595 l 595 0 l 397 0 z "},"Z":{"ha":1216,"x_min":0,"x_max":992,"o":"m 0 0 l 0 397 l 99 397 l 99 496 l 198 496 l 198 595 l 297 595 l 297 694 l 397 694 l 397 793 l 496 793 l 496 893 l 595 893 l 595 992 l 694 992 l 694 1091 l 793 1091 l 793 1190 l 0 1190 l 0 1389 l 992 1389 l 992 992 l 893 992 l 893 893 l 793 893 l 793 793 l 694 793 l 694 694 l 595 694 l 595 595 l 496 595 l 496 496 l 397 496 l 397 397 l 297 397 l 297 297 l 198 297 l 198 198 l 992 198 l 992 0 l 0 0 z "},"[":{"ha":1216,"x_min":297,"x_max":694,"o":"m 297 0 l 297 1389 l 694 1389 l 694 1290 l 496 1290 l 496 99 l 694 99 l 694 0 l 297 0 z "},"\\":{"ha":1216,"x_min":99,"x_max":893,"o":"m 694 0 l 694 198 l 595 198 l 595 397 l 496 397 l 496 595 l 397 595 l 397 793 l 297 793 l 297 992 l 198 992 l 198 1190 l 99 1190 l 99 1389 l 297 1389 l 297 1190 l 397 1190 l 397 992 l 496 992 l 496 793 l 595 793 l 595 595 l 694 595 l 694 397 l 793 397 l 793 198 l 893 198 l 893 0 l 694 0 z "},"]":{"ha":1216,"x_min":297,"x_max":694,"o":"m 297 0 l 297 99 l 496 99 l 496 1290 l 297 1290 l 297 1389 l 694 1389 l 694 0 l 297 0 z "},"^":{"ha":1216,"x_min":0,"x_max":992,"o":"m 0 793 l 0 992 l 99 992 l 99 1091 l 198 1091 l 198 1190 l 297 1190 l 297 1290 l 397 1290 l 397 1389 l 595 1389 l 595 1290 l 694 1290 l 694 1190 l 793 1190 l 793 1091 l 893 1091 l 893 992 l 992 992 l 992 793 l 793 793 l 793 893 l 694 893 l 694 992 l 595 992 l 595 1091 l 397 1091 l 397 992 l 297 992 l 297 893 l 198 893 l 198 793 l 0 793 z "},"_":{"ha":1216,"x_min":0,"x_max":992,"o":"m 0 0 l 0 198 l 992 198 l 992 0 l 0 0 z "},"`":{"ha":1216,"x_min":297,"x_max":694,"o":"m 496 992 l 496 1091 l 397 1091 l 397 1190 l 297 1190 l 297 1389 l 595 1389 l 595 1190 l 694 1190 l 694 992 l 496 992 z "},"a":{"ha":1216,"x_min":0,"x_max":992,"o":"m 793 694 l 793 992 l 694 992 l 694 1091 l 595 1091 l 595 1190 l 397 1190 l 397 1091 l 297 1091 l 297 992 l 198 992 l 198 694 l 793 694 m 0 0 l 0 1091 l 99 1091 l 99 1190 l 198 1190 l 198 1290 l 297 1290 l 297 1389 l 694 1389 l 694 1290 l 793 1290 l 793 1190 l 893 1190 l 893 1091 l 992 1091 l 992 0 l 793 0 l 793 496 l 198 496 l 198 0 l 0 0 z "},"b":{"ha":1216,"x_min":0,"x_max":992,"o":"m 694 198 l 694 297 l 793 297 l 793 496 l 694 496 l 694 595 l 198 595 l 198 198 l 694 198 m 694 793 l 694 893 l 793 893 l 793 1091 l 694 1091 l 694 1190 l 198 1190 l 198 793 l 694 793 m 0 0 l 0 1389 l 793 1389 l 793 1290 l 893 1290 l 893 1190 l 992 1190 l 992 793 l 893 793 l 893 595 l 992 595 l 992 198 l 893 198 l 893 99 l 793 99 l 793 0 l 0 0 z "},"c":{"ha":1216,"x_min":0,"x_max":992,"o":"m 198 0 l 198 99 l 99 99 l 99 198 l 0 198 l 0 1190 l 99 1190 l 99 1290 l 198 1290 l 198 1389 l 793 1389 l 793 1290 l 893 1290 l 893 1190 l 992 1190 l 992 992 l 793 992 l 793 1091 l 694 1091 l 694 1190 l 297 1190 l 297 1091 l 198 1091 l 198 297 l 297 297 l 297 198 l 694 198 l 694 297 l 793 297 l 793 397 l 992 397 l 992 198 l 893 198 l 893 99 l 793 99 l 793 0 l 198 0 z "},"d":{"ha":1216,"x_min":0,"x_max":992,"o":"m 595 198 l 595 297 l 694 297 l 694 397 l 793 397 l 793 992 l 694 992 l 694 1091 l 595 1091 l 595 1190 l 198 1190 l 198 198 l 595 198 m 0 0 l 0 1389 l 694 1389 l 694 1290 l 793 1290 l 793 1190 l 893 1190 l 893 1091 l 992 1091 l 992 297 l 893 297 l 893 198 l 793 198 l 793 99 l 694 99 l 694 0 l 0 0 z "},"e":{"ha":1216,"x_min":0,"x_max":992,"o":"m 0 0 l 0 1389 l 992 1389 l 992 1190 l 198 1190 l 198 793 l 595 793 l 595 595 l 198 595 l 198 198 l 992 198 l 992 0 l 0 0 z "},"f":{"ha":1216,"x_min":0,"x_max":992,"o":"m 0 0 l 0 1389 l 992 1389 l 992 1190 l 198 1190 l 198 793 l 595 793 l 595 595 l 198 595 l 198 0 l 0 0 z "},"g":{"ha":1216,"x_min":0,"x_max":992,"o":"m 198 0 l 198 99 l 99 99 l 99 198 l 0 198 l 0 1190 l 99 1190 l 99 1290 l 198 1290 l 198 1389 l 793 1389 l 793 1290 l 893 1290 l 893 1190 l 992 1190 l 992 992 l 793 992 l 793 1091 l 694 1091 l 694 1190 l 297 1190 l 297 1091 l 198 1091 l 198 297 l 297 297 l 297 198 l 694 198 l 694 297 l 793 297 l 793 496 l 694 496 l 694 694 l 992 694 l 992 198 l 893 198 l 893 99 l 793 99 l 793 0 l 198 0 z "},"h":{"ha":1216,"x_min":0,"x_max":992,"o":"m 0 0 l 0 1389 l 198 1389 l 198 793 l 793 793 l 793 1389 l 992 1389 l 992 0 l 793 0 l 793 595 l 198 595 l 198 0 l 0 0 z "},"i":{"ha":1216,"x_min":0,"x_max":992,"o":"m 0 0 l 0 198 l 397 198 l 397 1190 l 0 1190 l 0 1389 l 992 1389 l 992 1190 l 595 1190 l 595 198 l 992 198 l 992 0 l 0 0 z "},"j":{"ha":1216,"x_min":0,"x_max":992,"o":"m 198 0 l 198 99 l 99 99 l 99 198 l 0 198 l 0 397 l 198 397 l 198 297 l 297 297 l 297 198 l 496 198 l 496 297 l 595 297 l 595 1190 l 198 1190 l 198 1389 l 992 1389 l 992 1190 l 793 1190 l 793 198 l 694 198 l 694 99 l 595 99 l 595 0 l 198 0 z "},"k":{"ha":1216,"x_min":0,"x_max":992,"o":"m 0 0 l 0 1389 l 198 1389 l 198 793 l 297 793 l 297 893 l 397 893 l 397 992 l 496 992 l 496 1091 l 595 1091 l 595 1190 l 694 1190 l 694 1290 l 793 1290 l 793 1389 l 992 1389 l 992 1190 l 893 1190 l 893 1091 l 793 1091 l 793 992 l 694 992 l 694 893 l 595 893 l 595 793 l 496 793 l 496 595 l 595 595 l 595 496 l 694 496 l 694 397 l 793 397 l 793 297 l 893 297 l 893 198 l 992 198 l 992 0 l 793 0 l 793 99 l 694 99 l 694 198 l 595 198 l 595 297 l 496 297 l 496 397 l 397 397 l 397 496 l 297 496 l 297 595 l 198 595 l 198 0 l 0 0 z "},"l":{"ha":1216,"x_min":0,"x_max":992,"o":"m 0 0 l 0 1389 l 198 1389 l 198 198 l 992 198 l 992 0 l 0 0 z "},"m":{"ha":1216,"x_min":0,"x_max":992,"o":"m 0 0 l 0 1389 l 198 1389 l 198 1290 l 297 1290 l 297 1190 l 397 1190 l 397 1091 l 595 1091 l 595 1190 l 694 1190 l 694 1290 l 793 1290 l 793 1389 l 992 1389 l 992 0 l 793 0 l 793 992 l 694 992 l 694 893 l 595 893 l 595 793 l 397 793 l 397 893 l 297 893 l 297 992 l 198 992 l 198 0 l 0 0 z "},"n":{"ha":1216,"x_min":99,"x_max":992,"o":"m 99 0 l 99 1389 l 297 1389 l 297 1290 l 397 1290 l 397 1091 l 496 1091 l 496 893 l 595 893 l 595 694 l 694 694 l 694 496 l 793 496 l 793 1389 l 992 1389 l 992 0 l 793 0 l 793 99 l 694 99 l 694 297 l 595 297 l 595 496 l 496 496 l 496 694 l 397 694 l 397 893 l 297 893 l 297 0 l 99 0 z "},"o":{"ha":1216,"x_min":0,"x_max":992,"o":"m 694 198 l 694 297 l 793 297 l 793 1091 l 694 1091 l 694 1190 l 297 1190 l 297 1091 l 198 1091 l 198 297 l 297 297 l 297 198 l 694 198 m 198 0 l 198 99 l 99 99 l 99 198 l 0 198 l 0 1190 l 99 1190 l 99 1290 l 198 1290 l 198 1389 l 793 1389 l 793 1290 l 893 1290 l 893 1190 l 992 1190 l 992 198 l 893 198 l 893 99 l 793 99 l 793 0 l 198 0 z "},"p":{"ha":1216,"x_min":0,"x_max":992,"o":"m 694 793 l 694 893 l 793 893 l 793 1091 l 694 1091 l 694 1190 l 198 1190 l 198 793 l 694 793 m 0 0 l 0 1389 l 793 1389 l 793 1290 l 893 1290 l 893 1190 l 992 1190 l 992 793 l 893 793 l 893 694 l 793 694 l 793 595 l 198 595 l 198 0 l 0 0 z "},"q":{"ha":1216,"x_min":0,"x_max":992,"o":"m 595 198 l 595 297 l 496 297 l 496 496 l 694 496 l 694 397 l 793 397 l 793 1091 l 694 1091 l 694 1190 l 297 1190 l 297 1091 l 198 1091 l 198 297 l 297 297 l 297 198 l 595 198 m 198 0 l 198 99 l 99 99 l 99 198 l 0 198 l 0 1190 l 99 1190 l 99 1290 l 198 1290 l 198 1389 l 793 1389 l 793 1290 l 893 1290 l 893 1190 l 992 1190 l 992 297 l 893 297 l 893 198 l 992 198 l 992 0 l 793 0 l 793 99 l 595 99 l 595 0 l 198 0 z "},"r":{"ha":1216,"x_min":0,"x_max":992,"o":"m 694 793 l 694 893 l 793 893 l 793 1091 l 694 1091 l 694 1190 l 198 1190 l 198 793 l 694 793 m 0 0 l 0 1389 l 793 1389 l 793 1290 l 893 1290 l 893 1190 l 992 1190 l 992 793 l 893 793 l 893 694 l 793 694 l 793 397 l 893 397 l 893 198 l 992 198 l 992 0 l 793 0 l 793 99 l 694 99 l 694 297 l 595 297 l 595 496 l 496 496 l 496 595 l 198 595 l 198 0 l 0 0 z "},"s":{"ha":1216,"x_min":0,"x_max":992,"o":"m 198 0 l 198 99 l 99 99 l 99 198 l 0 198 l 0 397 l 198 397 l 198 297 l 297 297 l 297 198 l 694 198 l 694 297 l 793 297 l 793 496 l 694 496 l 694 595 l 198 595 l 198 694 l 99 694 l 99 793 l 0 793 l 0 1190 l 99 1190 l 99 1290 l 198 1290 l 198 1389 l 793 1389 l 793 1290 l 893 1290 l 893 1190 l 992 1190 l 992 992 l 793 992 l 793 1091 l 694 1091 l 694 1190 l 297 1190 l 297 1091 l 198 1091 l 198 893 l 297 893 l 297 793 l 793 793 l 793 694 l 893 694 l 893 595 l 992 595 l 992 198 l 893 198 l 893 99 l 793 99 l 793 0 l 198 0 z "},"t":{"ha":1216,"x_min":0,"x_max":992,"o":"m 397 0 l 397 1190 l 0 1190 l 0 1389 l 992 1389 l 992 1190 l 595 1190 l 595 0 l 397 0 z "},"u":{"ha":1216,"x_min":0,"x_max":992,"o":"m 198 0 l 198 99 l 99 99 l 99 198 l 0 198 l 0 1389 l 198 1389 l 198 297 l 297 297 l 297 198 l 694 198 l 694 297 l 793 297 l 793 1389 l 992 1389 l 992 198 l 893 198 l 893 99 l 793 99 l 793 0 l 198 0 z "},"v":{"ha":1216,"x_min":0,"x_max":992,"o":"m 397 0 l 397 198 l 297 198 l 297 397 l 198 397 l 198 694 l 99 694 l 99 992 l 0 992 l 0 1389 l 198 1389 l 198 992 l 297 992 l 297 694 l 397 694 l 397 397 l 595 397 l 595 694 l 694 694 l 694 992 l 793 992 l 793 1389 l 992 1389 l 992 992 l 893 992 l 893 694 l 793 694 l 793 397 l 694 397 l 694 198 l 595 198 l 595 0 l 397 0 z "},"w":{"ha":1216,"x_min":0,"x_max":992,"o":"m 0 0 l 0 1389 l 198 1389 l 198 397 l 297 397 l 297 496 l 397 496 l 397 595 l 595 595 l 595 496 l 694 496 l 694 397 l 793 397 l 793 1389 l 992 1389 l 992 0 l 793 0 l 793 99 l 694 99 l 694 198 l 595 198 l 595 297 l 397 297 l 397 198 l 297 198 l 297 99 l 198 99 l 198 0 l 0 0 z "},"x":{"ha":1216,"x_min":0,"x_max":992,"o":"m 0 0 l 0 198 l 99 198 l 99 397 l 198 397 l 198 595 l 297 595 l 297 793 l 198 793 l 198 992 l 99 992 l 99 1190 l 0 1190 l 0 1389 l 198 1389 l 198 1190 l 297 1190 l 297 992 l 397 992 l 397 893 l 595 893 l 595 992 l 694 992 l 694 1190 l 793 1190 l 793 1389 l 992 1389 l 992 1190 l 893 1190 l 893 992 l 793 992 l 793 793 l 694 793 l 694 595 l 793 595 l 793 397 l 893 397 l 893 198 l 992 198 l 992 0 l 793 0 l 793 198 l 694 198 l 694 397 l 595 397 l 595 496 l 397 496 l 397 397 l 297 397 l 297 198 l 198 198 l 198 0 l 0 0 z "},"y":{"ha":1216,"x_min":0,"x_max":992,"o":"m 397 0 l 397 595 l 297 595 l 297 793 l 198 793 l 198 992 l 99 992 l 99 1190 l 0 1190 l 0 1389 l 198 1389 l 198 1190 l 297 1190 l 297 992 l 397 992 l 397 793 l 595 793 l 595 992 l 694 992 l 694 1190 l 793 1190 l 793 1389 l 992 1389 l 992 1190 l 893 1190 l 893 992 l 793 992 l 793 793 l 694 793 l 694 595 l 595 595 l 595 0 l 397 0 z "},"z":{"ha":1216,"x_min":0,"x_max":992,"o":"m 0 0 l 0 397 l 99 397 l 99 496 l 198 496 l 198 595 l 297 595 l 297 694 l 397 694 l 397 793 l 496 793 l 496 893 l 595 893 l 595 992 l 694 992 l 694 1091 l 793 1091 l 793 1190 l 0 1190 l 0 1389 l 992 1389 l 992 992 l 893 992 l 893 893 l 793 893 l 793 793 l 694 793 l 694 694 l 595 694 l 595 595 l 496 595 l 496 496 l 397 496 l 397 397 l 297 397 l 297 297 l 198 297 l 198 198 l 992 198 l 992 0 l 0 0 z "},"{":{"ha":1216,"x_min":198,"x_max":793,"o":"m 496 0 l 496 99 l 397 99 l 397 397 l 297 397 l 297 496 l 198 496 l 198 893 l 297 893 l 297 992 l 397 992 l 397 1290 l 496 1290 l 496 1389 l 793 1389 l 793 1290 l 694 1290 l 694 1190 l 595 1190 l 595 893 l 496 893 l 496 793 l 397 793 l 397 595 l 496 595 l 496 496 l 595 496 l 595 198 l 694 198 l 694 99 l 793 99 l 793 0 l 496 0 z "},"|":{"ha":1216,"x_min":397,"x_max":595,"o":"m 397 0 l 397 1389 l 595 1389 l 595 0 l 397 0 z "},"}":{"ha":1216,"x_min":198,"x_max":793,"o":"m 198 0 l 198 99 l 297 99 l 297 198 l 397 198 l 397 496 l 496 496 l 496 595 l 595 595 l 595 793 l 496 793 l 496 893 l 397 893 l 397 1190 l 297 1190 l 297 1290 l 198 1290 l 198 1389 l 496 1389 l 496 1290 l 595 1290 l 595 992 l 694 992 l 694 893 l 793 893 l 793 496 l 694 496 l 694 397 l 595 397 l 595 99 l 496 99 l 496 0 l 198 0 z "},"~":{"ha":1216,"x_min":0,"x_max":992,"o":"m 0 496 l 0 694 l 99 694 l 99 793 l 198 793 l 198 893 l 496 893 l 496 793 l 595 793 l 595 694 l 694 694 l 694 793 l 793 793 l 793 893 l 992 893 l 992 694 l 893 694 l 893 595 l 793 595 l 793 496 l 496 496 l 496 595 l 397 595 l 397 694 l 297 694 l 297 595 l 198 595 l 198 496 l 0 496 z "},"°":{"ha":1216,"x_min":198,"x_max":793,"o":"m 595 992 l 595 1190 l 397 1190 l 397 992 l 595 992 m 397 793 l 397 893 l 297 893 l 297 992 l 198 992 l 198 1190 l 297 1190 l 297 1290 l 397 1290 l 397 1389 l 595 1389 l 595 1290 l 694 1290 l 694 1190 l 793 1190 l 793 992 l 694 992 l 694 893 l 595 893 l 595 793 l 397 793 z "},"‘":{"ha":1216,"x_min":397,"x_max":595,"o":"m 397 992 l 397 1290 l 496 1290 l 496 1190 l 595 1190 l 595 992 l 397 992 m 496 1290 l 496 1389 l 595 1389 l 595 1290 l 496 1290 z "},"’":{"ha":1216,"x_min":397,"x_max":595,"o":"m 397 992 l 397 1091 l 496 1091 l 496 992 l 397 992 m 496 1091 l 496 1190 l 397 1190 l 397 1389 l 595 1389 l 595 1091 l 496 1091 z "},"“":{"ha":1216,"x_min":297,"x_max":793,"o":"m 297 992 l 297 1290 l 397 1290 l 397 1190 l 496 1190 l 496 992 l 297 992 m 595 992 l 595 1290 l 694 1290 l 694 1190 l 793 1190 l 793 992 l 595 992 m 397 1290 l 397 1389 l 496 1389 l 496 1290 l 397 1290 m 694 1290 l 694 1389 l 793 1389 l 793 1290 l 694 1290 z "},"”":{"ha":1216,"x_min":297,"x_max":793,"o":"m 297 992 l 297 1091 l 397 1091 l 397 992 l 297 992 m 595 992 l 595 1091 l 694 1091 l 694 992 l 595 992 m 397 1091 l 397 1190 l 297 1190 l 297 1389 l 496 1389 l 496 1091 l 397 1091 m 694 1091 l 694 1190 l 595 1190 l 595 1389 l 793 1389 l 793 1091 l 694 1091 z "}}}
